<?xml version="1.0" encoding="UTF-8" ?>
<!DOCTYPE svg PUBLIC "-//W3C//DTD SVG 1.1//EN" "http://www.w3.org/Graphics/SVG/1.1/DTD/svg11.dtd">
<svg width="296pt" height="287pt" viewBox="0 0 296 287" version="1.1" xmlns="http://www.w3.org/2000/svg">
<g id="#d5991eff">
<path fill="#d5991e" opacity="1.00" d=" M 174.84 15.83 C 176.38 13.94 177.28 10.96 180.15 10.85 C 179.82 16.44 174.77 20.03 173.38 25.24 C 172.69 28.25 170.29 30.38 168.95 33.08 C 170.77 31.53 172.00 29.47 173.28 27.49 C 173.62 27.87 174.30 28.61 174.63 28.98 C 174.24 32.00 172.34 34.51 171.33 37.33 C 170.03 40.11 169.73 43.19 169.08 46.15 C 171.12 43.13 172.56 38.98 176.81 38.70 C 176.81 41.36 176.76 44.03 176.68 46.69 C 175.59 46.89 174.50 47.09 173.42 47.30 C 173.01 49.37 172.28 51.34 171.14 53.13 C 168.82 56.88 169.12 61.73 166.15 65.14 C 156.34 78.73 149.53 94.13 143.53 109.69 C 140.32 118.86 137.65 128.21 134.67 137.46 C 132.42 145.23 131.57 153.29 130.12 161.23 C 129.76 165.50 128.60 169.73 129.13 174.04 C 129.33 176.84 129.74 180.40 127.32 182.40 C 123.67 185.88 118.12 184.75 113.59 184.32 C 113.93 179.07 109.05 176.42 105.89 173.12 C 104.04 171.13 101.40 169.70 100.49 167.00 C 100.18 163.56 101.01 160.19 101.47 156.81 C 101.57 151.70 98.03 146.76 100.08 141.68 C 98.88 130.61 93.09 120.74 89.65 110.26 C 88.60 110.04 87.56 109.82 86.52 109.60 C 83.93 102.31 80.92 95.18 77.82 88.09 C 75.92 83.68 71.65 81.16 68.53 77.74 C 68.52 74.69 66.48 72.10 66.14 69.24 C 68.14 66.96 68.81 64.12 68.72 61.14 C 70.18 56.65 74.34 52.82 73.77 47.75 C 75.89 48.18 77.92 48.95 80.03 49.44 C 82.41 49.63 83.58 46.37 86.02 47.12 C 88.59 47.81 91.20 48.52 93.72 47.18 C 93.82 48.31 93.92 49.45 94.02 50.58 C 96.93 51.09 98.28 53.86 99.94 55.97 C 101.25 57.34 100.86 59.32 101.14 61.03 C 101.46 65.46 103.02 69.66 103.66 74.03 C 104.63 79.22 105.49 84.47 107.43 89.40 C 109.69 94.77 110.15 100.66 111.85 106.20 C 113.15 111.58 115.38 116.74 115.94 122.28 C 118.93 116.32 120.52 109.79 122.77 103.54 C 126.17 93.96 129.62 84.40 133.09 74.85 C 136.03 68.33 137.58 61.28 140.54 54.77 C 142.88 49.74 144.64 44.42 148.14 40.02 C 149.09 40.36 150.04 40.71 150.99 41.05 C 153.33 37.70 155.95 34.05 159.92 32.58 C 159.74 34.18 159.52 35.77 159.35 37.37 C 164.98 30.53 169.46 22.85 174.84 15.83 M 168.24 34.25 C 168.82 34.80 168.82 34.80 168.24 34.25 Z" />
<path fill="#d5991e" opacity="1.00" d=" M 229.95 73.74 C 230.73 73.00 231.94 73.60 232.46 74.36 C 235.07 76.61 232.62 80.08 233.05 82.93 C 233.81 87.59 233.53 92.30 233.67 97.00 C 232.89 104.40 229.51 111.26 225.33 117.32 C 223.41 120.20 220.12 121.87 216.88 122.77 C 213.10 122.68 209.12 121.31 206.54 118.45 C 201.43 113.09 195.15 107.95 187.48 107.28 C 185.98 106.63 184.40 106.00 182.82 106.84 C 180.36 107.17 179.96 110.15 177.74 110.83 C 173.08 112.71 168.78 115.97 166.70 120.65 C 164.49 124.49 163.62 129.78 166.48 133.52 C 170.87 139.63 179.22 139.83 186.04 140.27 C 196.85 141.50 208.31 141.37 218.19 146.60 C 223.19 149.09 226.58 153.74 229.26 158.49 C 230.69 163.32 230.01 168.67 228.12 173.23 C 225.22 175.38 223.98 178.95 221.18 181.19 C 218.84 183.52 217.16 186.53 214.24 188.25 C 209.25 191.49 204.27 195.10 198.41 196.55 C 191.76 198.62 188.32 206.29 181.31 207.49 C 181.87 207.87 183.01 208.61 183.57 208.99 C 180.82 211.14 178.29 213.61 175.14 215.20 C 164.80 221.06 155.26 228.98 143.45 231.70 C 139.30 232.97 134.88 232.79 130.59 232.95 C 130.78 232.51 131.17 231.64 131.36 231.20 C 136.94 227.29 143.29 224.59 149.01 220.89 C 144.88 222.32 141.09 224.58 136.92 225.93 C 130.83 227.87 125.67 232.61 119.05 232.78 C 115.89 233.72 112.96 235.38 110.19 237.17 C 109.45 236.20 108.72 235.23 107.99 234.26 C 99.04 237.59 90.19 241.33 81.81 245.94 C 75.54 248.50 69.14 251.41 64.48 256.49 C 62.94 258.65 60.27 257.17 58.14 257.49 C 54.63 258.22 51.35 259.87 47.73 260.16 C 47.63 256.33 51.76 255.84 54.36 254.38 C 58.44 252.09 62.88 250.43 66.58 247.51 C 65.08 247.88 63.60 248.31 62.11 248.71 C 62.19 247.86 62.34 246.16 62.41 245.31 C 69.64 245.23 75.24 240.02 82.20 238.97 C 82.00 241.33 79.58 241.99 77.93 243.14 C 83.55 241.98 88.93 239.06 91.54 233.74 C 96.91 230.71 102.82 228.65 107.73 224.85 C 111.74 222.66 116.38 220.43 117.82 215.68 C 113.69 216.80 109.42 218.21 106.10 220.98 C 102.46 224.85 96.76 224.81 91.84 224.80 C 93.74 221.41 95.37 217.83 97.69 214.69 C 101.20 212.87 105.30 213.02 109.05 213.98 C 112.95 213.60 116.82 212.07 120.04 209.81 C 120.59 210.18 121.14 210.55 121.69 210.93 C 123.29 209.57 124.88 208.19 126.50 206.85 C 126.29 205.90 126.09 204.96 125.90 204.01 C 133.69 200.13 139.22 193.14 146.76 188.90 C 151.18 185.68 156.51 184.24 161.66 182.66 C 166.71 177.97 173.69 176.28 179.30 172.36 C 185.77 169.22 190.44 163.69 195.39 158.69 C 193.45 156.01 191.26 153.00 187.77 152.35 C 176.31 149.89 164.25 151.90 153.02 148.12 C 147.54 145.93 143.85 140.80 141.73 135.48 C 139.88 125.37 142.37 114.61 148.33 106.26 C 150.89 103.20 153.31 100.01 156.03 97.09 C 165.76 88.77 177.76 81.27 191.05 81.96 C 196.78 81.73 202.26 84.36 208.03 83.41 C 213.82 82.00 219.52 80.20 224.94 77.70 C 227.31 77.44 228.47 75.31 229.95 73.74 M 117.83 216.63 C 120.86 216.90 123.74 215.87 126.28 214.32 C 123.48 214.71 119.61 213.97 117.83 216.63 M 104.72 230.01 C 109.19 228.65 113.21 226.18 117.50 224.38 C 118.70 223.92 119.73 223.15 120.63 222.26 C 115.05 224.14 109.39 226.35 104.72 230.01 Z" />
</g>
</svg>
